# AST/ASF file generated using VICON BodyLanguage
# -----------------------------------------------
:version 1.10
:name VICON
:units
  mass 1.0
  length 0.45
  angle deg
:documentation
   .ast/.asf automatically generated from VICON data using
   VICON BodyBuilder and BodyLanguage model FoxedUp or BRILLIANT.MOD
:root
   order TX TY TZ RX RY RZ
   axis XYZ
   position 0 0 0  
   orientation 0 0 0 
:bonedata
  begin
     id 1 
     name lhipjoint
     direction 0.577973 -0.728611 0.367523 
     length 2.48544 
     axis 0 0 0  XYZ
  end
  begin
     id 2 
     name lfemur
     direction 0.34202 -0.939693 0  
     length 7.1921  
     axis 0 0 20  XYZ
    dof rx ry rz
    limits (-160.0 20.0)
           (-70.0 70.0)
           (-60.0 70.0)
  end
  begin
     id 3 
     name ltibia
     direction 0.34202 -0.939693 0   
     length 7.71059   
     axis 0 0 20   XYZ
    dof rx
    limits (-10.0 170.0)
  end
  begin
     id 4 
     name lfoot
     direction 0.089538 -0.246004 0.965124   
     length 2.19909   
     axis -90 7.62852e-016 20   XYZ
    dof rx rz
    limits (-45.0 90.0)
           (-70.0 20.0)
  end
  begin
     id 5 
     name ltoes
     direction 1.53544e-011 -4.21829e-011 1   
     length 1.10116   
     axis -90 7.62852e-016 20   XYZ
    dof rx
    limits (-90.0 20.0)
  end
  begin
     id 6 
     name rhipjoint
     direction -0.554414 -0.743062 0.374812   
     length 2.4371  
     axis 0 0 0  XYZ 
  end
  begin
     id 7 
     name rfemur
     direction -0.34202 -0.939693 0   
     length 7.47254   
     axis 0 0 -20   XYZ
    dof rx ry rz
    limits (-160.0 20.0)
           (-70.0 70.0)
           (-70.0 60.0)
  end
  begin
     id 8 
     name rtibia
     direction -0.34202 -0.939693 0   
     length 7.65855   
     axis 0 0 -20   XYZ
    dof rx
    limits (-10.0 170.0)
 end
 begin
     id 9 
     name rfoot
     direction -0.133779 -0.367555 0.92033   
     length 2.43006  
     axis -90 -7.62852e-016 -20   XYZ
    dof rx rz
    limits (-45.0 90.0)
           (-20.0 70.0)
  end
  begin
     id 10 
     name rtoes
     direction -1.53563e-011 -4.21889e-011 1   
     length 1.19625   
     axis -90 -7.62852e-016 -20   XYZ
    dof rx
    limits (-90.0 20.0)
  end
  begin
     id 11 
     name lowerback
     direction 0.0249066 0.998043 -0.0573585   
     length 2.08485   
     axis 0 0 0   XYZ
    dof rx ry rz
    limits (-20.0 45.0)
           (-30.0 30.0)
           (-30.0 30.0)
  end
  begin
     id 12 
     name upperback
     direction 0.0237884 0.999673 0.00943178   
     length 2.08515   
     axis 0 0 0   XYZ
    dof rx ry rz
    limits (-20.0 45.0)
           (-30.0 30.0)
           (-30.0 30.0)
  end
  begin
     id 13 
     name thorax
     direction 0.0106671 0.999301 0.0358174   
     length 2.09037   
     axis 0 0 0   XYZ
    dof rx ry rz
    limits (-20.0 45.0)
           (-30.0 30.0)
           (-30.0 30.0)
  end
  begin
     id 14 
     name lowerneck
     direction -0.0580016 0.987052 0.149546   
     length 1.84454   
     axis 0 0 0   XYZ
    dof rx ry rz
    limits (-20.0 45.0)
           (-30.0 30.0)
           (-30.0 30.0)
  end
  begin
     id 15 
     name upperneck
     direction 0.079456 0.981963 -0.171567   
     length 1.88141   
     axis 0 0 0   XYZ
    dof rx ry rz
    limits (-20.0 45.0)
           (-30.0 30.0)
           (-30.0 30.0)
  end
  begin
     id 16
     name head
     direction 0.0262167 0.9967 -0.0768276  
     length 1.89541  
     axis 0 0 0   XYZ
    dof rx ry rz
    limits (-20.0 45.0)
           (-30.0 30.0)
           (-30.0 30.0)
  end
  begin
     id 17 
     name lclavicle
     direction 0.946135 0.322134 -0.0325326  
     length 3.949  
     axis 0 0 0   XYZ
    dof ry rz
    limits (-20.0 10.0)
           (0.0 20.0)
  end
  begin
     id 18 
     name lhumerus
     direction 1 -4.48964e-011 1.94005e-028   
     length 5.10995   
     axis 180 -30 -90   XYZ
    dof rx ry rz
    limits (-60.0 90.0)
           (-90.0 90.0)
           (-90.0 90.0)
  end
  begin
     id 19
     name lradius
     direction 1 -4.48976e-011 2.87852e-027   
     length 3.21207   
     axis 180 -30 -90   XYZ
    dof rx
    limits (-10.0 170.0)
  end
  begin
     id 20
     name lwrist
     direction 1 -4.48963e-011 1.9975e-027   
     length 1.60604   
     axis 2.96054e-016 90 90   XYZ
    dof ry
    limits (-180.0 0.0)
 end
  begin
     id 21 
     name lhand
     direction 1 -4.48919e-011 4.00227e-027   
     length 0.63349   
     axis -2.5488e-015 90 90   XYZ
    dof rx rz
    limits (-90.0 90.0)
           (-45.0 45.0)
  end
  begin
     id 22 
     name lfingers
     direction 1 -4.49037e-011 7.9652e-027   
     length 0.510736   
     axis -5.0975e-015 90 90   XYZ
    dof rx
    limits (0.0 90.0)
  end
  begin
     id 23
     name lthumb
     direction 0.707107 -6.34922e-011 0.707107   
     length 0.733318   
     axis -90 45 -4.48553e-014   XYZ
    dof rx rz
    limits (-45.0 45.0)
           (-45.0 45.0)
  end
  begin
     id 24 
     name rclavicle
     direction -0.940085 0.328911 -0.0897654   
     length 3.93848  
     axis 0 0 0   XYZ 
    dof ry rz
    limits (-10.0 20.0)
           (-20.0 0.0)
  end
  begin
     id 25 
     name rhumerus
     direction -1 -4.48958e-011 3.02044e-027  
     length 5.25109   
     axis 180 30 90   XYZ
    dof rx ry rz
    limits (-90.0 60.0)
           (-90.0 90.0)
           (-90.0 90.0)
  end
  begin
     id 26 
     name rradius
     direction -1 -4.4897e-011 9.78352e-028   
     length 3.28364   
     axis 180 30 90   XYZ
    dof rx
    limits (-10.0 170.0)
  end
  begin
     id 27 
     name rwrist
     direction -1 -4.48943e-011 1.99918e-027   
     length 1.64182   
     axis 2.96054e-016 -90 -90   XYZ
    dof ry
    limits (-180.0 0.0)
  end
  begin
     id 28
     name rhand
     direction -1 -4.49024e-011 3.98478e-027   
     length 0.599745   
     axis -2.5488e-015 -90 -90   XYZ
    dof rx rz
    limits (-90.0 90.0)
           (-45.0 45.0)
  end
  begin
     id 29
     name rfingers
     direction -1 -4.48914e-011 8.00621e-027   
     length 0.48353   
     axis -5.0975e-015 -90 -90   XYZ
    dof rx
    limits (0.0 90.0)
  end
  begin
     id 30
     name rthumb
     direction -0.707107 -6.34992e-011 0.707107   
     length 0.694255   
     axis -90 -45 4.48553e-014   XYZ
    dof rx rz
    limits (-45.0 45.0)
           (-45.0 45.0)
  end
:hierarchy
  begin
    root lhipjoint rhipjoint lowerback
    lhipjoint lfemur
    lfemur ltibia
    ltibia lfoot
    lfoot ltoes
    rhipjoint rfemur
    rfemur rtibia
    rtibia rfoot
    rfoot rtoes
    lowerback upperback
    upperback thorax
    thorax lowerneck lclavicle rclavicle
    lowerneck upperneck
    upperneck head
    lclavicle lhumerus
    lhumerus lradius
    lradius lwrist
    lwrist lhand lthumb
    lhand lfingers
    rclavicle rhumerus
    rhumerus rradius
    rradius rwrist
    rwrist rhand rthumb
    rhand rfingers
  end

#!OML:ASF E:\CV Data\Top Level 1\Subject 1\Session 1\player.ASF
:FULLY-SPECIFIED
:DEGREES
913
root 9.28254 16.3887 -10.4689 2.87217 -84.8052 -3.35693
lowerback 2.24868 -0.239698 -8.17304
upperback -2.40015 -0.852256 -3.24139
thorax -3.70342 -0.291246 1.26098
lowerneck -13.7567 13.1852 -4.69935
upperneck 20.8391 16.5419 12.4555
head 7.10503 8.73948 6.29129
rclavicle 2.88238e-015 2.06736e-014
rhumerus 146.654 129.269 75.3106
rradius 101.881
rwrist 13.0087
rhand -40.9194 35.7363
rfingers 7.12502
rthumb -13.854 6.21774
lclavicle 2.88238e-015 2.06736e-014
lhumerus -40.6649 -36.9778 111.669
lradius 110.973
lwrist 14.9829
lhand -40.4214 5.89992
lfingers 7.12502
lthumb -13.374 35.4507
rfemur -35.3999 2.86095 26.0279
rtibia 53.302
rfoot -16.9329 -1.6798
rtoes 19.6484
lfemur 10.8006 11.0101 -20.1682
ltibia 38.4261
lfoot -14.4536 7.56792
ltoes -32.9603
914
root 9.15927 16.3799 -10.4639 5.45152 -85.5637 -6.71627
lowerback 2.05974 -0.249029 -7.95482
upperback -2.47926 -0.842326 -3.24839
thorax -3.68112 -0.29191 1.13119
lowerneck -13.5706 13.3299 -4.82192
upperneck 21.2807 16.6459 12.9314
head 7.14557 8.81864 6.47313
rclavicle 1.0138e-014 4.45278e-014
rhumerus 147.49 129.151 76.1663
rradius 102.835
rwrist 13.3644
rhand -41.103 36.2843
rfingers 7.12502
rthumb -14.0309 6.77785
lclavicle 1.0138e-014 4.45278e-014
lhumerus -40.154 -37.6733 111.672
lradius 111.91
lwrist 13.5447
lhand -40.5558 5.3417
lfingers 7.12502
lthumb -13.5035 34.8839
rfemur -34.0939 3.20525 26.4765
rtibia 53.3529
rfoot -17.3632 -1.51187
rtoes 19.4323
lfemur 10.5597 11.2378 -19.4769
ltibia 40.9627
lfoot -12.5078 6.08515
ltoes -32.7711
915
root 9.03727 16.3709 -10.4596 9.44857 -86.3039 -11.5157
lowerback 1.90785 -0.244577 -7.66384
upperback -2.54084 -0.815899 -3.28252
thorax -3.66342 -0.287121 0.932597
lowerneck -13.3948 13.4634 -4.93575
upperneck 21.7003 16.7305 13.4123
head 7.18198 8.89013 6.65407
rclavicle -1.98785e-015 -3.18055e-015
rhumerus 148.435 129.109 77.0571
rradius 103.769
rwrist 13.7722
rhand -41.3177 36.8855
rfingers 7.12502
rthumb -14.2378 7.39354
lclavicle -1.98785e-015 -3.18055e-015
lhumerus -39.5135 -38.4608 111.544
lradius 112.81
lwrist 12.1835
lhand -40.6625 4.65364
lfingers 7.12502
lthumb -13.6063 34.189
rfemur -32.748 3.53015 26.9415
rtibia 53.3702
rfoot -17.7723 -1.3339
rtoes 19.2162
lfemur 10.1374 11.5145 -18.7232
ltibia 43.7356
lfoot -10.1532 4.45727
ltoes -32.2302
916
root 8.91734 16.3614 -10.4548 16.5757 -87.0121 -19.4647
lowerback 1.80665 -0.218327 -7.28781
upperback -2.59044 -0.761477 -3.31222
thorax -3.6638 -0.270048 0.690566
lowerneck -13.2455 13.5854 -4.99227
upperneck 22.121 16.7967 13.8352
head 7.23601 8.95116 6.81245
rclavicle 1.35174e-014 -1.90833e-014
rhumerus 149.463 129.13 77.9962
rradius 104.688
rwrist 14.2173
rhand -41.5604 37.4982
rfingers 7.12502
rthumb -14.4717 8.0228
lclavicle 1.35174e-014 -1.90833e-014
lhumerus -38.7408 -39.3194 111.325
lradius 113.666
lwrist 10.8835
lhand -40.6944 3.91876
lfingers 7.12502
lthumb -13.6371 33.452
rfemur -31.3649 3.84364 27.4581
rtibia 53.3562
rfoot -18.1685 -1.13361
rtoes 19.0113
lfemur 9.53863 11.8264 -17.8798
ltibia 46.7092
lfoot -7.46384 2.67889
ltoes -31.0898
917
root 8.80003 16.3507 -10.4495 29.4581 -87.6302 -33.1783
lowerback 1.75019 -0.167647 -6.83608
upperback -2.62685 -0.673923 -3.32312
thorax -3.67698 -0.237716 0.4247
lowerneck -13.1285 13.6955 -4.98425
upperneck 22.5392 16.8472 14.1795
head 7.31072 9.00179 6.94163
rclavicle 1.98785e-016 -3.18055e-015
rhumerus 150.572 129.205 78.9964
rradius 105.579
rwrist 14.7023
rhand -41.8758 38.2179
rfingers 7.12502
rthumb -14.7755 8.76456
lclavicle 1.98785e-016 -3.18055e-015
lhumerus -37.7974 -40.2361 110.998
lradius 114.457
lwrist 9.63134
lhand -40.6144 3.16594
lfingers 7.12502
lthumb -13.56 32.7044
rfemur -29.9592 4.14317 28.0306
rtibia 53.3134
rfoot -18.5535 -0.901535
rtoes 18.8411
lfemur 8.76757 12.164 -16.9546
ltibia 49.8427
lfoot -4.55879 0.751911
ltoes -29.3151
918
root 8.68534 16.3386 -10.4427 51.3701 -88.0154 -55.9343
lowerback 1.74534 -0.089417 -6.31265
upperback -2.6479 -0.548096 -3.29913
thorax -3.70374 -0.187041 0.153294
lowerneck -13.0273 13.794 -4.98302
upperneck 22.9313 16.894 14.4771
head 7.38419 9.04615 7.05727
rclavicle 1.39149e-015 1.90833e-014
rhumerus 151.752 129.32 80.0742
rradius 106.447
rwrist 15.1927
rhand -42.2287 39.0425
rfingers 7.12502
rthumb -15.1155 9.61444
lclavicle 1.39149e-015 1.90833e-014
lhumerus -36.6893 -41.1943 110.579
lradius 115.184
lwrist 8.39843
lhand -40.5639 2.35372
lfingers 7.12502
lthumb -13.5113 31.8954
rfemur -28.525 4.42675 28.6593
rtibia 53.2413
rfoot -18.9282 -0.638954
rtoes 18.6643
lfemur 7.85133 12.4983 -15.9688
ltibia 53.0909
lfoot -1.61689 -1.30162
ltoes -26.5635
919
root 8.5733 16.3248 -10.4339 79.1737 -87.9354 -84.5925
lowerback 1.78283 0.0054903 -5.72917
upperback -2.64515 -0.394593 -3.20697
thorax -3.72821 -0.122492 -0.0827078
lowerneck -12.9579 13.8914 -4.9647
upperneck 23.3078 16.9586 14.6751
head 7.46852 9.09064 7.1433
rclavicle -3.97569e-016 6.36111e-015
rhumerus 153.016 129.419 81.2592
rradius 107.294
rwrist 15.659
rhand -42.5615 39.9046
rfingers 7.12502
rthumb -15.4361 10.5009
lclavicle -3.97569e-016 6.36111e-015
lhumerus -35.3763 -42.14 110.06
lradius 115.837
lwrist 7.13753
lhand -40.5007 1.5805
lfingers 7.12502
lthumb -13.4505 31.1262
rfemur -27.0681 4.69871 29.3612
rtibia 53.1443
rfoot -19.2902 -0.348721
rtoes 18.499
lfemur 6.81513 12.8238 -14.9101
ltibia 56.4078
lfoot 1.13124 -3.44136
ltoes -22.752
920
root 8.46411 16.3088 -10.4228 100.559 -87.3723 -106.848
lowerback 1.86958 0.123271 -5.08944
upperback -2.6137 -0.205675 -3.05721
thorax -3.7492 -0.0404352 -0.292992
lowerneck -12.9061 13.9822 -4.98726
upperneck 23.6502 17.036 14.8274
head 7.54416 9.13432 7.22018
rclavicle 7.95139e-016 1.27222e-014
rhumerus 154.371 129.533 82.5588
rradius 108.125
rwrist 16.0724
rhand -42.8241 40.7934
rfingers 7.12502
rthumb -15.689 11.4095
lclavicle 7.95139e-016 1.27222e-014
lhumerus -33.8725 -43.0744 109.439
lradius 116.419
lwrist 5.82432
lhand -40.4305 0.812038
lfingers 7.12502
lthumb -13.3827 30.3622
rfemur -25.5913 4.95423 30.1175
rtibia 53.0335
rfoot -19.6402 -0.0374466
rtoes 18.3393
lfemur 5.69737 13.1358 -13.7945
ltibia 59.7443
lfoot 3.45124 -5.54844
ltoes -18.2601
921
root 8.3581 16.2895 -10.4095 112.895 -86.5106 -120.065
lowerback 1.98547 0.240468 -4.41053
upperback -2.54028 -0.0098933 -2.83809
thorax -3.74028 0.045265 -0.454746
lowerneck -12.8961 14.0843 -5.02287
upperneck 23.9771 17.1522 14.904
head 7.62475 9.18846 7.28
rclavicle 3.97569e-015 -3.49861e-014
rhumerus 155.842 129.605 83.972
rradius 108.932
rwrist 16.4598
rhand -43.0012 41.5985
rfingers 7.12502
rthumb -15.8596 12.2281
lclavicle 3.97569e-015 -3.49861e-014
lhumerus -32.1261 -43.9348 108.657
lradius 116.925
lwrist 4.45317
lhand -40.3484 0.0961638
lfingers 7.12502
lthumb -13.3036 29.6515
rfemur -24.1122 5.19558 30.9245
rtibia 52.9276
rfoot -19.9799 0.279722
rtoes 18.1658
lfemur 4.52946 13.4479 -12.6164
ltibia 63.0522
lfoot 5.15503 -7.49325
ltoes -13.7182
922
root 8.25522 16.2667 -10.3938 119.856 -85.5178 -127.912
lowerback 2.13433 0.371258 -3.70024
upperback -2.43352 0.208058 -2.58458
thorax -3.71337 0.14189 -0.600885
lowerneck -12.901 14.1841 -5.06188
upperneck 24.2783 17.2782 14.9375
head 7.70292 9.24283 7.32689
rclavicle -1.19271e-014 3.18055e-015
rhumerus 157.398 129.714 85.4541
rradius 109.709
rwrist 16.8228
rhand -43.0595 42.2803
rfingers 7.12502
rthumb -15.9157 12.9143
lclavicle -1.19271e-014 3.18055e-015
lhumerus -30.1976 -44.7617 107.734
lradius 117.355
lwrist 3.03131
lhand -40.2443 -0.5776
lfingers 7.12502
lthumb -13.2033 28.9843
rfemur -22.6462 5.42398 31.7415
rtibia 52.847
rfoot -20.3187 0.597383
rtoes 18.0079
lfemur 3.33552 13.7732 -11.4017
ltibia 66.2838
lfoot 6.12672 -9.1649
ltoes -9.74635
923
root 8.15568 16.24 -10.3761 124.119 -84.491 -133.058
lowerback 2.29823 0.507643 -2.92393
upperback -2.29351 0.435716 -2.37065
thorax -3.65721 0.24071 -0.826413
lowerneck -12.9102 14.2875 -5.0651
upperneck 24.5378 17.403 14.9733
head 7.77192 9.30054 7.36691
rclavicle 8.74653e-015 -3.18055e-014
rhumerus 159.024 129.908 86.89
rradius 110.416
rwrist 17.2591
rhand -43.1442 42.968
rfingers 7.12502
rthumb -15.9972 13.6085
lclavicle 8.74653e-015 -3.18055e-014
lhumerus -28.0965 -45.5788 106.575
lradius 117.708
lwrist 1.59162
lhand -40.1207 -1.24203
lfingers 7.12502
lthumb -13.0841 28.3275
rfemur -21.2196 5.64068 32.5262
rtibia 52.8119
rfoot -20.6622 0.902319
rtoes 17.8481
lfemur 2.11852 14.1463 -10.1891
ltibia 69.3941
lfoot 6.27599 -10.5443
ltoes -7.04483
924
root 8.05919 16.2106 -10.3564 126.978 -83.4662 -136.787
lowerback 2.48134 0.645903 -2.1223
upperback -2.13287 0.666427 -2.18216
thorax -3.58668 0.340484 -1.09378
lowerneck -12.9309 14.3936 -5.02397
upperneck 24.7834 17.5252 14.9967
head 7.84495 9.35954 7.3977
rclavicle 3.18055e-015 2.8625e-014
rhumerus 160.675 130.171 88.2632
rradius 111.05
rwrist 17.7415
rhand -43.2408 43.6092
rfingers 7.12502
rthumb -16.0902 14.2573
lclavicle 3.18055e-015 2.8625e-014
lhumerus -25.8436 -46.3433 105.221
lradius 117.976
lwrist 0.164754
lhand -39.9625 -1.82908
lfingers 7.12502
lthumb -12.9317 27.7502
rfemur -19.8433 5.85168 33.2629
rtibia 52.83
rfoot -21.0157 1.18511
rtoes 17.7045
lfemur 0.873939 14.5896 -8.98266
ltibia 72.3507
lfoot 5.6843 -11.6195
ltoes -5.46505
925
root 7.96621 16.1795 -10.3354 129.114 -82.4867 -139.764
lowerback 2.68201 0.780884 -1.3589
upperback -1.96455 0.890551 -2.01358
thorax -3.51474 0.438356 -1.36119
lowerneck -12.9616 14.5001 -4.94597
upperneck 25.026 17.6437 15.002
head 7.9255 9.41784 7.41942
rclavicle -1.86858e-014 3.18055e-014
rhumerus 162.318 130.492 89.5626
rradius 111.593
rwrist 18.2536
rhand -43.3683 44.2275
rfingers 7.12502
rthumb -16.213 14.8855
lclavicle -1.86858e-014 3.18055e-014
lhumerus -23.4602 -47.0231 103.706
lradius 118.146
lwrist -1.21298
lhand -39.7112 -2.33525
lfingers 7.12502
lthumb -12.6893 27.2592
rfemur -18.5415 6.05702 33.9192
rtibia 52.904
rfoot -21.3774 1.43768
rtoes 17.5828
lfemur -0.433109 15.1035 -7.8252
ltibia 75.1287
lfoot 4.5307 -12.4129
ltoes -4.74842
